<svg width="168" height="26" viewBox="0 0 168 26" fill="none" xmlns="http://www.w3.org/2000/svg">
<g filter="url(#filter0_d_4109_367)">
<path d="M15.3113 4.712V17H10.0073V4.712H4.58325V0.487999H20.7113V4.712H15.3113ZM23.1276 0.487999H37.4076V4.448H28.4316V6.728H36.1116V10.52H28.4316V13.04H37.5756V17H23.1276V0.487999ZM48.3199 0.199999C50.7679 0.199999 52.7039 0.815999 54.1279 2.048C55.5519 3.264 56.2639 5.008 56.2639 7.28H51.1999C51.1999 6.32 50.9439 5.56 50.4319 5C49.9359 4.44 49.2239 4.16 48.2959 4.16C47.2239 4.16 46.4319 4.496 45.9199 5.168C45.4239 5.84 45.1759 6.776 45.1759 7.976V9.512C45.1759 10.696 45.4239 11.632 45.9199 12.32C46.4319 12.992 47.2079 13.328 48.2479 13.328C49.2719 13.328 50.0479 13.064 50.5759 12.536C51.1039 12.008 51.3679 11.264 51.3679 10.304H56.2639C56.2639 12.56 55.5679 14.288 54.1759 15.488C52.7999 16.688 50.8479 17.288 48.3199 17.288C45.5039 17.288 43.3679 16.568 41.9119 15.128C40.4719 13.688 39.7519 11.56 39.7519 8.744C39.7519 5.928 40.4719 3.8 41.9119 2.36C43.3679 0.919999 45.5039 0.199999 48.3199 0.199999ZM70.2636 17V10.736H64.4316V17H59.1276V0.487999H64.4316V6.512H70.2636V0.487999H75.5676V17H70.2636ZM98.9199 17L91.9839 8.984V17H87.1119V0.487999H91.7439L98.6799 8.624V0.487999H103.552V17H98.9199ZM107.104 0.487999H121.384V4.448H112.408V6.728H120.088V10.52H112.408V13.04H121.552V17H107.104V0.487999ZM136.832 17L134.696 6.944H134.6L132.464 17H126.632L122.768 0.487999H128.288L130.184 9.848H130.28L132.152 0.487999H137.384L139.376 9.848H139.472L141.248 0.487999H146.528L142.664 17H136.832ZM155.36 0.199999C157.472 0.199999 159.208 0.631999 160.568 1.496C161.928 2.344 162.624 3.608 162.656 5.288V5.576H157.688V5.48C157.688 5 157.512 4.6 157.16 4.28C156.808 3.96 156.272 3.8 155.552 3.8C154.848 3.8 154.304 3.904 153.92 4.112C153.552 4.32 153.368 4.576 153.368 4.88C153.368 5.312 153.624 5.632 154.136 5.84C154.648 6.048 155.472 6.264 156.608 6.488C157.936 6.76 159.024 7.048 159.872 7.352C160.736 7.64 161.488 8.12 162.128 8.792C162.768 9.464 163.096 10.376 163.112 11.528C163.112 13.48 162.448 14.928 161.12 15.872C159.808 16.816 158.048 17.288 155.84 17.288C153.264 17.288 151.256 16.856 149.816 15.992C148.392 15.128 147.68 13.6 147.68 11.408H152.696C152.696 12.24 152.912 12.8 153.344 13.088C153.776 13.36 154.448 13.496 155.36 13.496C156.032 13.496 156.584 13.424 157.016 13.28C157.464 13.136 157.688 12.84 157.688 12.392C157.688 11.992 157.44 11.696 156.944 11.504C156.464 11.296 155.672 11.08 154.568 10.856C153.224 10.568 152.112 10.272 151.232 9.968C150.352 9.648 149.584 9.128 148.928 8.408C148.272 7.688 147.944 6.712 147.944 5.48C147.944 3.672 148.64 2.344 150.032 1.496C151.44 0.631999 153.216 0.199999 155.36 0.199999Z" fill="#60A5FA"/>
</g>
<defs>
<filter id="filter0_d_4109_367" x="0.583252" y="0.200012" width="166.529" height="25.088" filterUnits="userSpaceOnUse" color-interpolation-filters="sRGB">
<feFlood flood-opacity="0" result="BackgroundImageFix"/>
<feColorMatrix in="SourceAlpha" type="matrix" values="0 0 0 0 0 0 0 0 0 0 0 0 0 0 0 0 0 0 127 0" result="hardAlpha"/>
<feOffset dy="4"/>
<feGaussianBlur stdDeviation="2"/>
<feComposite in2="hardAlpha" operator="out"/>
<feColorMatrix type="matrix" values="0 0 0 0 0 0 0 0 0 0 0 0 0 0 0 0 0 0 0.25 0"/>
<feBlend mode="normal" in2="BackgroundImageFix" result="effect1_dropShadow_4109_367"/>
<feBlend mode="normal" in="SourceGraphic" in2="effect1_dropShadow_4109_367" result="shape"/>
</filter>
</defs>
</svg>
